<?xml version="1.0" standalone="no"?><svg xmlns="http://www.w3.org/2000/svg" viewBox="0 0 1440 320"><path fill="#a2d9ff" fill-opacity="1" d="M0,256L21.8,229.3C43.6,203,87,149,131,117.3C174.5,85,218,75,262,80C305.5,85,349,107,393,96C436.4,85,480,43,524,69.3C567.3,96,611,192,655,213.3C698.2,235,742,181,785,154.7C829.1,128,873,128,916,149.3C960,171,1004,213,1047,240C1090.9,267,1135,277,1178,256C1221.8,235,1265,181,1309,165.3C1352.7,149,1396,171,1418,181.3L1440,192L1440,320L1418.2,320C1396.4,320,1353,320,1309,320C1265.5,320,1222,320,1178,320C1134.5,320,1091,320,1047,320C1003.6,320,960,320,916,320C872.7,320,829,320,785,320C741.8,320,698,320,655,320C610.9,320,567,320,524,320C480,320,436,320,393,320C349.1,320,305,320,262,320C218.2,320,175,320,131,320C87.3,320,44,320,22,320L0,320Z"></path></svg>